<?xml version="1.0" encoding="UTF-8" standalone="no"?>
<!DOCTYPE svg PUBLIC "-//W3C//DTD SVG 1.1//EN"
 "http://www.w3.org/Graphics/SVG/1.1/DTD/svg11.dtd">
<!-- Generated by graphviz version 2.36.0 (20140111.2315)
 -->
<!-- Title: G Pages: 1 -->
<svg width="512pt" height="204pt"
 viewBox="0.00 0.00 512.00 204.00" xmlns="http://www.w3.org/2000/svg" xmlns:xlink="http://www.w3.org/1999/xlink">
<g id="graph0" class="graph" transform="scale(1 1) rotate(0) translate(4 200)">
<title>G</title>
<polygon fill="white" stroke="none" points="-4,4 -4,-200 508,-200 508,4 -4,4"/>
<g id="clust1" class="cluster"><title>cluster_Global</title>
<path fill="none" stroke="gray" d="M238,-8C238,-8 484,-8 484,-8 490,-8 496,-14 496,-20 496,-20 496,-176 496,-176 496,-182 490,-188 484,-188 484,-188 238,-188 238,-188 232,-188 226,-182 226,-176 226,-176 226,-20 226,-20 226,-14 232,-8 238,-8"/>
<text text-anchor="middle" x="361" y="-175.2" font-family="Times,serif" font-size="11.00" fill="gray">Global</text>
</g>
<!-- \\Iwmodel -->
<g id="node1" class="node"><title>\\Iwmodel</title>
<polygon fill="none" stroke="black" points="393,-160 329,-160 329,-124 393,-124 393,-160"/>
<text text-anchor="middle" x="361" y="-139.2" font-family="Courier,monospace" font-size="11.00">Iwmodel</text>
</g>
<!-- \\AppModel -->
<g id="node4" class="node"><title>\\AppModel</title>
<ellipse fill="none" stroke="black" cx="81" cy="-142" rx="51.9908" ry="18"/>
<text text-anchor="middle" x="81" y="-138.3" font-family="Times,serif" font-size="14.00" fill="gray">\AppModel</text>
</g>
<!-- \\Iwmodel&#45;&gt;\\AppModel -->
<g id="edge1" class="edge"><title>\\Iwmodel&#45;&gt;\\AppModel</title>
<path fill="none" stroke="black" d="M328.919,-142C284.143,-142 200.57,-142 143.153,-142"/>
<polygon fill="none" stroke="black" points="143.108,-138.5 133.108,-142 143.108,-145.5 143.108,-138.5"/>
</g>
<!-- \\InteractiveWorldInterfaceController -->
<g id="node2" class="node"><title>\\InteractiveWorldInterfaceController</title>
<polygon fill="none" stroke="black" points="487.5,-106 234.5,-106 234.5,-70 487.5,-70 487.5,-106"/>
<text text-anchor="middle" x="361" y="-85.2" font-family="Courier,monospace" font-size="11.00">InteractiveWorldInterfaceController</text>
</g>
<!-- \\InterfaceController -->
<g id="node5" class="node"><title>\\InterfaceController</title>
<ellipse fill="none" stroke="black" cx="81" cy="-88" rx="80.6858" ry="18"/>
<text text-anchor="middle" x="81" y="-84.3" font-family="Times,serif" font-size="14.00" fill="gray">\InterfaceController</text>
</g>
<!-- \\InteractiveWorldInterfaceController&#45;&gt;\\InterfaceController -->
<g id="edge2" class="edge"><title>\\InteractiveWorldInterfaceController&#45;&gt;\\InterfaceController</title>
<path fill="none" stroke="black" d="M234.42,-88C213.248,-88 191.656,-88 171.635,-88"/>
<polygon fill="none" stroke="black" points="171.632,-84.5001 161.632,-88 171.632,-91.5001 171.632,-84.5001"/>
</g>
<!-- \\IwmodelsController -->
<g id="node3" class="node"><title>\\IwmodelsController</title>
<polygon fill="none" stroke="black" points="430,-52 292,-52 292,-16 430,-16 430,-52"/>
<text text-anchor="middle" x="361" y="-31.2" font-family="Courier,monospace" font-size="11.00">IwmodelsController</text>
</g>
<!-- \\AppController -->
<g id="node6" class="node"><title>\\AppController</title>
<ellipse fill="none" stroke="black" cx="81" cy="-34" rx="64.189" ry="18"/>
<text text-anchor="middle" x="81" y="-30.3" font-family="Times,serif" font-size="14.00" fill="gray">\AppController</text>
</g>
<!-- \\IwmodelsController&#45;&gt;\\AppController -->
<g id="edge3" class="edge"><title>\\IwmodelsController&#45;&gt;\\AppController</title>
<path fill="none" stroke="black" d="M291.994,-34C250.71,-34 198.006,-34 155.726,-34"/>
<polygon fill="none" stroke="black" points="155.493,-30.5001 145.493,-34 155.493,-37.5001 155.493,-30.5001"/>
</g>
</g>
</svg>
