<?xml version="1.0" encoding="UTF-8" standalone="no"?>
<!DOCTYPE svg PUBLIC "-//W3C//DTD SVG 1.1//EN"
 "http://www.w3.org/Graphics/SVG/1.1/DTD/svg11.dtd">
<!-- Generated by graphviz version 2.36.0 (20140111.2315)
 -->
<!-- Title: G Pages: 1 -->
<svg width="512pt" height="96pt"
 viewBox="0.00 0.00 512.00 96.00" xmlns="http://www.w3.org/2000/svg" xmlns:xlink="http://www.w3.org/1999/xlink">
<g id="graph0" class="graph" transform="scale(1 1) rotate(0) translate(4 92)">
<title>G</title>
<polygon fill="white" stroke="none" points="-4,4 -4,-92 508,-92 508,4 -4,4"/>
<g id="clust1" class="cluster"><title>cluster_Global</title>
<path fill="none" stroke="gray" d="M238,-8C238,-8 484,-8 484,-8 490,-8 496,-14 496,-20 496,-20 496,-68 496,-68 496,-74 490,-80 484,-80 484,-80 238,-80 238,-80 232,-80 226,-74 226,-68 226,-68 226,-20 226,-20 226,-14 232,-8 238,-8"/>
<text text-anchor="middle" x="361" y="-67.2" font-family="Times,serif" font-size="11.00" fill="gray">Global</text>
</g>
<!-- \\InteractiveWorldInterfaceController -->
<g id="node1" class="node"><title>\\InteractiveWorldInterfaceController</title>
<polygon fill="none" stroke="black" points="487.5,-52 234.5,-52 234.5,-16 487.5,-16 487.5,-52"/>
<text text-anchor="middle" x="361" y="-31.2" font-family="Courier,monospace" font-size="11.00">InteractiveWorldInterfaceController</text>
</g>
<!-- \\InterfaceController -->
<g id="node2" class="node"><title>\\InterfaceController</title>
<ellipse fill="none" stroke="black" cx="81" cy="-34" rx="80.6858" ry="18"/>
<text text-anchor="middle" x="81" y="-30.3" font-family="Times,serif" font-size="14.00" fill="gray">\InterfaceController</text>
</g>
<!-- \\InteractiveWorldInterfaceController&#45;&gt;\\InterfaceController -->
<g id="edge1" class="edge"><title>\\InteractiveWorldInterfaceController&#45;&gt;\\InterfaceController</title>
<path fill="none" stroke="black" d="M234.42,-34C213.248,-34 191.656,-34 171.635,-34"/>
<polygon fill="none" stroke="black" points="171.632,-30.5001 161.632,-34 171.632,-37.5001 171.632,-30.5001"/>
</g>
</g>
</svg>
